<svg version="1.1" viewBox="0.0 0.0 615.0 371.0" fill="none" stroke="none" stroke-linecap="square" stroke-miterlimit="10" width="615" height="371" xmlns:xlink="http://www.w3.org/1999/xlink" xmlns="http://www.w3.org/2000/svg"><path fill="#1e1e1e" d="M0 0L615.0 0L615.0 371.0L0 371.0L0 0Z" fill-rule="nonzero"/><path stroke="#eaeaea" stroke-width="1.0" stroke-linecap="butt" d="M93.5 284.5L596.5 284.5" fill-rule="nonzero"/><path stroke="#515151" stroke-width="1.0" stroke-linecap="butt" d="M93.5 219.5L596.5 219.5" fill-rule="nonzero"/><path stroke="#515151" stroke-width="1.0" stroke-linecap="butt" d="M93.5 155.5L596.5 155.5" fill-rule="nonzero"/><path stroke="#515151" stroke-width="1.0" stroke-linecap="butt" d="M93.5 90.5L596.5 90.5" fill-rule="nonzero"/><path stroke="#515151" stroke-width="1.0" stroke-linecap="butt" d="M93.5 25.5L596.5 25.5" fill-rule="nonzero"/><clipPath id="id_0"><path d="M93.55 25.55L596.45 25.55L596.45 284.45L93.55 284.45L93.55 25.55Z" clip-rule="nonzero"/></clipPath><path stroke="#000000" stroke-width="2.0" stroke-linecap="butt" stroke-opacity="0.0" clip-path="url(#id_0)" d="M244.0 284.0L146.0 284.0L146.0 68.0C146.0 66.89543 146.89543 66.0 148.0 66.0L242.0 66.0C243.10457 66.0 244.0 66.89543 244.0 68.0Z" fill-rule="nonzero"/><path fill="#4285f4" clip-path="url(#id_0)" d="M244.0 284.0L146.0 284.0L146.0 68.0C146.0 66.89543 146.89543 66.0 148.0 66.0L242.0 66.0C243.10457 66.0 244.0 66.89543 244.0 68.0Z" fill-rule="nonzero"/><path stroke="#000000" stroke-width="2.0" stroke-linecap="butt" stroke-opacity="0.0" clip-path="url(#id_0)" d="M394.0 284.0L296.0 284.0L296.0 133.0C296.0 131.89543 296.89542 131.0 298.0 131.0L392.0 131.0C393.10458 131.0 394.0 131.89543 394.0 133.0Z" fill-rule="nonzero"/><path fill="#4285f4" clip-path="url(#id_0)" d="M394.0 284.0L296.0 284.0L296.0 133.0C296.0 131.89543 296.89542 131.0 298.0 131.0L392.0 131.0C393.10458 131.0 394.0 131.89543 394.0 133.0Z" fill-rule="nonzero"/><path stroke="#000000" stroke-width="2.0" stroke-linecap="butt" stroke-opacity="0.0" clip-path="url(#id_0)" d="M544.0 284.0L446.0 284.0L446.0 224.0C446.0 222.89543 446.89542 222.0 448.0 222.0L542.0 222.0C543.10455 222.0 544.0 222.89543 544.0 224.0Z" fill-rule="nonzero"/><path fill="#4285f4" clip-path="url(#id_0)" d="M544.0 284.0L446.0 284.0L446.0 224.0C446.0 222.89543 446.89542 222.0 448.0 222.0L542.0 222.0C543.10455 222.0 544.0 222.89543 544.0 224.0Z" fill-rule="nonzero"/><path stroke="#4285f4" stroke-width="3.0" stroke-linejoin="round" stroke-linecap="round" d="M186.78125 78.32987L187.59375 78.32987Q188.375 78.31425 188.8125 77.92362Q189.25 77.533 189.25 76.86112Q189.25 75.36112 187.75 75.36112Q187.04688 75.36112 186.625 75.76737Q186.21875 76.17362 186.21875 76.82987L185.125 76.82987Q185.125 75.81425 185.85938 75.14237Q186.60938 74.4705 187.75 74.4705Q188.95312 74.4705 189.64062 75.11112Q190.32812 75.75175 190.32812 76.89237Q190.32812 77.45487 189.96875 77.9705Q189.60938 78.48612 188.98438 78.75175Q189.6875 78.9705 190.0625 79.48612Q190.45312 80.00175 190.45312 80.75175Q190.45312 81.89237 189.70312 82.57987Q188.95312 83.25175 187.75 83.25175Q186.5625 83.25175 185.79688 82.5955Q185.04688 81.93925 185.04688 80.87675L186.14062 80.87675Q186.14062 81.54862 186.57812 81.95487Q187.01562 82.36112 187.76562 82.36112Q188.54688 82.36112 188.95312 81.95487Q189.375 81.533 189.375 80.76737Q189.375 80.033 188.92188 79.64237Q188.46875 79.23612 187.59375 79.2205L186.78125 79.2205L186.78125 78.32987ZM193.78125 78.32987L194.59375 78.32987Q195.375 78.31425 195.8125 77.92362Q196.25 77.533 196.25 76.86112Q196.25 75.36112 194.75 75.36112Q194.04688 75.36112 193.625 75.76737Q193.21875 76.17362 193.21875 76.82987L192.125 76.82987Q192.125 75.81425 192.85938 75.14237Q193.60938 74.4705 194.75 74.4705Q195.95312 74.4705 196.64062 75.11112Q197.32812 75.75175 197.32812 76.89237Q197.32812 77.45487 196.96875 77.9705Q196.60938 78.48612 195.98438 78.75175Q196.6875 78.9705 197.0625 79.48612Q197.45312 80.00175 197.45312 80.75175Q197.45312 81.89237 196.70312 82.57987Q195.95312 83.25175 194.75 83.25175Q193.5625 83.25175 192.79688 82.5955Q192.04688 81.93925 192.04688 80.87675L193.14062 80.87675Q193.14062 81.54862 193.57812 81.95487Q194.01562 82.36112 194.76562 82.36112Q195.54688 82.36112 195.95312 81.95487Q196.375 81.533 196.375 80.76737Q196.375 80.033 195.92188 79.64237Q195.46875 79.23612 194.59375 79.2205L193.78125 79.2205L193.78125 78.32987ZM204.71875 75.20487L201.1875 83.12675L200.04688 83.12675L203.5625 75.48612L198.95312 75.48612L198.95312 74.5955L204.71875 74.5955L204.71875 75.20487Z" fill-rule="nonzero"/><path fill="#ffffff" d="M186.78125 78.32987L187.59375 78.32987Q188.375 78.31425 188.8125 77.92362Q189.25 77.533 189.25 76.86112Q189.25 75.36112 187.75 75.36112Q187.04688 75.36112 186.625 75.76737Q186.21875 76.17362 186.21875 76.82987L185.125 76.82987Q185.125 75.81425 185.85938 75.14237Q186.60938 74.4705 187.75 74.4705Q188.95312 74.4705 189.64062 75.11112Q190.32812 75.75175 190.32812 76.89237Q190.32812 77.45487 189.96875 77.9705Q189.60938 78.48612 188.98438 78.75175Q189.6875 78.9705 190.0625 79.48612Q190.45312 80.00175 190.45312 80.75175Q190.45312 81.89237 189.70312 82.57987Q188.95312 83.25175 187.75 83.25175Q186.5625 83.25175 185.79688 82.5955Q185.04688 81.93925 185.04688 80.87675L186.14062 80.87675Q186.14062 81.54862 186.57812 81.95487Q187.01562 82.36112 187.76562 82.36112Q188.54688 82.36112 188.95312 81.95487Q189.375 81.533 189.375 80.76737Q189.375 80.033 188.92188 79.64237Q188.46875 79.23612 187.59375 79.2205L186.78125 79.2205L186.78125 78.32987ZM193.78125 78.32987L194.59375 78.32987Q195.375 78.31425 195.8125 77.92362Q196.25 77.533 196.25 76.86112Q196.25 75.36112 194.75 75.36112Q194.04688 75.36112 193.625 75.76737Q193.21875 76.17362 193.21875 76.82987L192.125 76.82987Q192.125 75.81425 192.85938 75.14237Q193.60938 74.4705 194.75 74.4705Q195.95312 74.4705 196.64062 75.11112Q197.32812 75.75175 197.32812 76.89237Q197.32812 77.45487 196.96875 77.9705Q196.60938 78.48612 195.98438 78.75175Q196.6875 78.9705 197.0625 79.48612Q197.45312 80.00175 197.45312 80.75175Q197.45312 81.89237 196.70312 82.57987Q195.95312 83.25175 194.75 83.25175Q193.5625 83.25175 192.79688 82.5955Q192.04688 81.93925 192.04688 80.87675L193.14062 80.87675Q193.14062 81.54862 193.57812 81.95487Q194.01562 82.36112 194.76562 82.36112Q195.54688 82.36112 195.95312 81.95487Q196.375 81.533 196.375 80.76737Q196.375 80.033 195.92188 79.64237Q195.46875 79.23612 194.59375 79.2205L193.78125 79.2205L193.78125 78.32987ZM204.71875 75.20487L201.1875 83.12675L200.04688 83.12675L203.5625 75.48612L198.95312 75.48612L198.95312 74.5955L204.71875 74.5955L204.71875 75.20487Z" fill-rule="nonzero"/><path stroke="#4285f4" stroke-width="3.0" stroke-linejoin="round" stroke-linecap="round" d="M340.79688 147.85175L335.20312 147.85175L335.20312 147.0705L338.15625 143.78925Q338.8125 143.03925 339.0625 142.58612Q339.3125 142.11737 339.3125 141.61737Q339.3125 140.9455 338.90625 140.52362Q338.51562 140.08612 337.82812 140.08612Q337.03125 140.08612 336.57812 140.55487Q336.125 141.008 336.125 141.83612L335.04688 141.83612Q335.04688 140.64862 335.79688 139.92987Q336.5625 139.1955 337.82812 139.1955Q339.03125 139.1955 339.71875 139.8205Q340.40625 140.4455 340.40625 141.49237Q340.40625 142.74237 338.79688 144.49237L336.51562 146.96112L340.79688 146.96112L340.79688 147.85175ZM343.78125 143.05487L344.59375 143.05487Q345.375 143.03925 345.8125 142.64862Q346.25 142.258 346.25 141.58612Q346.25 140.08612 344.75 140.08612Q344.04688 140.08612 343.625 140.49237Q343.21875 140.89862 343.21875 141.55487L342.125 141.55487Q342.125 140.53925 342.85938 139.86737Q343.60938 139.1955 344.75 139.1955Q345.95312 139.1955 346.64062 139.83612Q347.32812 140.47675 347.32812 141.61737Q347.32812 142.17987 346.96875 142.6955Q346.60938 143.21112 345.98438 143.47675Q346.6875 143.6955 347.0625 144.21112Q347.45312 144.72675 347.45312 145.47675Q347.45312 146.61737 346.70312 147.30487Q345.95312 147.97675 344.75 147.97675Q343.5625 147.97675 342.79688 147.3205Q342.04688 146.66425 342.04688 145.60175L343.14062 145.60175Q343.14062 146.27362 343.57812 146.67987Q344.01562 147.08612 344.76562 147.08612Q345.54688 147.08612 345.95312 146.67987Q346.375 146.258 346.375 145.49237Q346.375 144.758 345.92188 144.36737Q345.46875 143.96112 344.59375 143.9455L343.78125 143.9455L343.78125 143.05487ZM354.71875 139.92987L351.1875 147.85175L350.04688 147.85175L353.5625 140.21112L348.95312 140.21112L348.95312 139.3205L354.71875 139.3205L354.71875 139.92987Z" fill-rule="nonzero"/><path fill="#ffffff" d="M340.79688 147.85175L335.20312 147.85175L335.20312 147.0705L338.15625 143.78925Q338.8125 143.03925 339.0625 142.58612Q339.3125 142.11737 339.3125 141.61737Q339.3125 140.9455 338.90625 140.52362Q338.51562 140.08612 337.82812 140.08612Q337.03125 140.08612 336.57812 140.55487Q336.125 141.008 336.125 141.83612L335.04688 141.83612Q335.04688 140.64862 335.79688 139.92987Q336.5625 139.1955 337.82812 139.1955Q339.03125 139.1955 339.71875 139.8205Q340.40625 140.4455 340.40625 141.49237Q340.40625 142.74237 338.79688 144.49237L336.51562 146.96112L340.79688 146.96112L340.79688 147.85175ZM343.78125 143.05487L344.59375 143.05487Q345.375 143.03925 345.8125 142.64862Q346.25 142.258 346.25 141.58612Q346.25 140.08612 344.75 140.08612Q344.04688 140.08612 343.625 140.49237Q343.21875 140.89862 343.21875 141.55487L342.125 141.55487Q342.125 140.53925 342.85938 139.86737Q343.60938 139.1955 344.75 139.1955Q345.95312 139.1955 346.64062 139.83612Q347.32812 140.47675 347.32812 141.61737Q347.32812 142.17987 346.96875 142.6955Q346.60938 143.21112 345.98438 143.47675Q346.6875 143.6955 347.0625 144.21112Q347.45312 144.72675 347.45312 145.47675Q347.45312 146.61737 346.70312 147.30487Q345.95312 147.97675 344.75 147.97675Q343.5625 147.97675 342.79688 147.3205Q342.04688 146.66425 342.04688 145.60175L343.14062 145.60175Q343.14062 146.27362 343.57812 146.67987Q344.01562 147.08612 344.76562 147.08612Q345.54688 147.08612 345.95312 146.67987Q346.375 146.258 346.375 145.49237Q346.375 144.758 345.92188 144.36737Q345.46875 143.96112 344.59375 143.9455L343.78125 143.9455L343.78125 143.05487ZM354.71875 139.92987L351.1875 147.85175L350.04688 147.85175L353.5625 140.21112L348.95312 140.21112L348.95312 139.3205L354.71875 139.3205L354.71875 139.92987Z" fill-rule="nonzero"/><path stroke="#4285f4" stroke-width="3.0" stroke-linejoin="round" stroke-linecap="round" d="M492.85938 235.364Q492.53125 235.77025 492.04688 236.02025Q491.57812 236.25462 491.01562 236.25462Q490.28125 236.25462 489.73438 235.89525Q489.1875 235.53587 488.89062 234.87962Q488.59375 234.20775 488.59375 233.41087Q488.59375 232.56712 488.90625 231.87962Q489.23438 231.19212 489.82812 230.83275Q490.4375 230.45775 491.23438 230.45775Q492.5 230.45775 493.21875 231.41087Q493.95312 232.364 493.95312 233.989L493.95312 234.3015Q493.95312 236.8015 492.96875 237.94212Q491.98438 239.08275 490.0 239.114L489.78125 239.114L489.78125 238.20775L490.01562 238.20775Q491.35938 238.1765 492.07812 237.50462Q492.79688 236.83275 492.85938 235.364ZM491.1875 235.364Q491.73438 235.364 492.1875 235.03587Q492.65625 234.69212 492.875 234.20775L492.875 233.77025Q492.875 232.70775 492.40625 232.03587Q491.9375 231.364 491.23438 231.364Q490.51562 231.364 490.07812 231.91087Q489.65625 232.45775 489.65625 233.364Q489.65625 234.239 490.0625 234.8015Q490.48438 235.364 491.1875 235.364ZM499.96875 230.58275L499.96875 231.489L499.76562 231.489Q498.5 231.52025 497.75 232.25462Q497.0 232.97337 496.875 234.28587Q497.5625 233.52025 498.71875 233.52025Q499.82812 233.52025 500.5 234.3015Q501.17188 235.08275 501.17188 236.33275Q501.17188 237.64525 500.45312 238.44212Q499.73438 239.239 498.51562 239.239Q497.29688 239.239 496.53125 238.3015Q495.78125 237.34837 495.78125 235.864L495.78125 235.45775Q495.78125 233.09837 496.78125 231.84837Q497.78125 230.59837 499.76562 230.58275L499.96875 230.58275ZM498.54688 234.4265Q497.98438 234.4265 497.51562 234.75462Q497.04688 235.08275 496.85938 235.59837L496.85938 235.989Q496.85938 237.0515 497.32812 237.69212Q497.8125 238.33275 498.51562 238.33275Q499.25 238.33275 499.67188 237.8015Q500.09375 237.25462 500.09375 236.37962Q500.09375 235.50462 499.67188 234.97337Q499.25 234.4265 498.54688 234.4265Z" fill-rule="nonzero"/><path fill="#ffffff" d="M492.85938 235.364Q492.53125 235.77025 492.04688 236.02025Q491.57812 236.25462 491.01562 236.25462Q490.28125 236.25462 489.73438 235.89525Q489.1875 235.53587 488.89062 234.87962Q488.59375 234.20775 488.59375 233.41087Q488.59375 232.56712 488.90625 231.87962Q489.23438 231.19212 489.82812 230.83275Q490.4375 230.45775 491.23438 230.45775Q492.5 230.45775 493.21875 231.41087Q493.95312 232.364 493.95312 233.989L493.95312 234.3015Q493.95312 236.8015 492.96875 237.94212Q491.98438 239.08275 490.0 239.114L489.78125 239.114L489.78125 238.20775L490.01562 238.20775Q491.35938 238.1765 492.07812 237.50462Q492.79688 236.83275 492.85938 235.364ZM491.1875 235.364Q491.73438 235.364 492.1875 235.03587Q492.65625 234.69212 492.875 234.20775L492.875 233.77025Q492.875 232.70775 492.40625 232.03587Q491.9375 231.364 491.23438 231.364Q490.51562 231.364 490.07812 231.91087Q489.65625 232.45775 489.65625 233.364Q489.65625 234.239 490.0625 234.8015Q490.48438 235.364 491.1875 235.364ZM499.96875 230.58275L499.96875 231.489L499.76562 231.489Q498.5 231.52025 497.75 232.25462Q497.0 232.97337 496.875 234.28587Q497.5625 233.52025 498.71875 233.52025Q499.82812 233.52025 500.5 234.3015Q501.17188 235.08275 501.17188 236.33275Q501.17188 237.64525 500.45312 238.44212Q499.73438 239.239 498.51562 239.239Q497.29688 239.239 496.53125 238.3015Q495.78125 237.34837 495.78125 235.864L495.78125 235.45775Q495.78125 233.09837 496.78125 231.84837Q497.78125 230.59837 499.76562 230.58275L499.96875 230.58275ZM498.54688 234.4265Q497.98438 234.4265 497.51562 234.75462Q497.04688 235.08275 496.85938 235.59837L496.85938 235.989Q496.85938 237.0515 497.32812 237.69212Q497.8125 238.33275 498.51562 238.33275Q499.25 238.33275 499.67188 237.8015Q500.09375 237.25462 500.09375 236.37962Q500.09375 235.50462 499.67188 234.97337Q499.25 234.4265 498.54688 234.4265Z" fill-rule="nonzero"/><path fill="#ffffff" d="M286.67188 348.45L286.67188 335.5594L288.39062 335.5594L288.39062 348.45L286.67188 348.45ZM290.1875 348.45L290.1875 339.1219L291.60938 339.1219L291.60938 340.41876Q292.04688 339.7469 292.76562 339.325Q293.5 338.90314 294.4375 338.90314Q295.46875 338.90314 296.125 339.34064Q296.79688 339.7625 297.0625 340.54376Q298.17188 338.90314 299.95312 338.90314Q301.34375 338.90314 302.07812 339.6844Q302.82812 340.45 302.82812 342.04376L302.82812 348.45L301.26562 348.45L301.26562 342.575Q301.26562 341.6219 301.10938 341.2Q300.95312 340.77814 300.54688 340.52814Q300.14062 340.27814 299.59375 340.27814Q298.60938 340.27814 297.95312 340.9344Q297.3125 341.59064 297.3125 343.02814L297.3125 348.45L295.73438 348.45L295.73438 342.3875Q295.73438 341.325 295.34375 340.8094Q294.95312 340.27814 294.07812 340.27814Q293.40625 340.27814 292.84375 340.6375Q292.28125 340.98126 292.01562 341.65314Q291.76562 342.325 291.76562 343.60626L291.76562 348.45L290.1875 348.45ZM304.1875 352.02814L304.1875 339.1219L305.625 339.1219L305.625 340.325Q306.14062 339.6219 306.78125 339.2625Q307.42188 338.90314 308.32812 338.90314Q309.53125 338.90314 310.4375 339.52814Q311.35938 340.1375 311.82812 341.2625Q312.29688 342.3719 312.29688 343.71564Q312.29688 345.1375 311.78125 346.29376Q311.26562 347.4344 310.28125 348.0594Q309.29688 348.66876 308.21875 348.66876Q307.4375 348.66876 306.79688 348.34064Q306.17188 347.9969 305.76562 347.48126L305.76562 352.02814L304.1875 352.02814ZM305.625 343.84064Q305.625 345.6375 306.34375 346.4969Q307.07812 347.35626 308.10938 347.35626Q309.17188 347.35626 309.92188 346.46564Q310.67188 345.575 310.67188 343.7Q310.67188 341.91876 309.9375 341.02814Q309.20312 340.1375 308.1875 340.1375Q307.17188 340.1375 306.39062 341.09064Q305.625 342.02814 305.625 343.84064ZM314.15625 348.45L314.15625 335.5594L315.73438 335.5594L315.73438 348.45L314.15625 348.45ZM324.57812 345.45L326.21875 345.65314Q325.82812 347.075 324.78125 347.8719Q323.73438 348.66876 322.10938 348.66876Q320.0625 348.66876 318.85938 347.40314Q317.65625 346.1375 317.65625 343.85626Q317.65625 341.5125 318.85938 340.21564Q320.07812 338.90314 322.01562 338.90314Q323.89062 338.90314 325.07812 340.1844Q326.26562 341.45 326.26562 343.7625Q326.26562 343.90314 326.25 344.1844L319.29688 344.1844Q319.375 345.73126 320.15625 346.54376Q320.95312 347.35626 322.10938 347.35626Q322.98438 347.35626 323.59375 346.90314Q324.21875 346.45 324.57812 345.45ZM319.375 342.8875L324.59375 342.8875Q324.48438 341.71564 324.0 341.1219Q323.23438 340.2 322.03125 340.2Q320.95312 340.2 320.20312 340.9344Q319.46875 341.66876 319.375 342.8875ZM328.1875 348.45L328.1875 339.1219L329.60938 339.1219L329.60938 340.41876Q330.04688 339.7469 330.76562 339.325Q331.5 338.90314 332.4375 338.90314Q333.46875 338.90314 334.125 339.34064Q334.79688 339.7625 335.0625 340.54376Q336.17188 338.90314 337.95312 338.90314Q339.34375 338.90314 340.07812 339.6844Q340.82812 340.45 340.82812 342.04376L340.82812 348.45L339.26562 348.45L339.26562 342.575Q339.26562 341.6219 339.10938 341.2Q338.95312 340.77814 338.54688 340.52814Q338.14062 340.27814 337.59375 340.27814Q336.60938 340.27814 335.95312 340.9344Q335.3125 341.59064 335.3125 343.02814L335.3125 348.45L333.73438 348.45L333.73438 342.3875Q333.73438 341.325 333.34375 340.8094Q332.95312 340.27814 332.07812 340.27814Q331.40625 340.27814 330.84375 340.6375Q330.28125 340.98126 330.01562 341.65314Q329.76562 342.325 329.76562 343.60626L329.76562 348.45L328.1875 348.45ZM348.57812 345.45L350.21875 345.65314Q349.82812 347.075 348.78125 347.8719Q347.73438 348.66876 346.10938 348.66876Q344.0625 348.66876 342.85938 347.40314Q341.65625 346.1375 341.65625 343.85626Q341.65625 341.5125 342.85938 340.21564Q344.07812 338.90314 346.01562 338.90314Q347.89062 338.90314 349.07812 340.1844Q350.26562 341.45 350.26562 343.7625Q350.26562 343.90314 350.25 344.1844L343.29688 344.1844Q343.375 345.73126 344.15625 346.54376Q344.95312 347.35626 346.10938 347.35626Q346.98438 347.35626 347.59375 346.90314Q348.21875 346.45 348.57812 345.45ZM343.375 342.8875L348.59375 342.8875Q348.48438 341.71564 348.0 341.1219Q347.23438 340.2 346.03125 340.2Q344.95312 340.2 344.20312 340.9344Q343.46875 341.66876 343.375 342.8875ZM352.1875 348.45L352.1875 339.1219L353.60938 339.1219L353.60938 340.45Q354.64062 338.90314 356.57812 338.90314Q357.42188 338.90314 358.125 339.21564Q358.84375 339.5125 359.1875 340.0125Q359.54688 340.4969 359.6875 341.16876Q359.76562 341.60626 359.76562 342.71564L359.76562 348.45L358.1875 348.45L358.1875 342.77814Q358.1875 341.8094 358.0 341.325Q357.82812 340.84064 357.34375 340.5594Q356.875 340.27814 356.25 340.27814Q355.23438 340.27814 354.5 340.91876Q353.76562 341.5594 353.76562 343.35626L353.76562 348.45L352.1875 348.45ZM365.64062 347.02814L365.875 348.4344Q365.20312 348.575 364.67188 348.575Q363.8125 348.575 363.32812 348.3094Q362.85938 348.02814 362.67188 347.59064Q362.48438 347.1375 362.48438 345.71564L362.48438 340.34064L361.3125 340.34064L361.3125 339.1219L362.48438 339.1219L362.48438 336.8094L364.04688 335.85626L364.04688 339.1219L365.64062 339.1219L365.64062 340.34064L364.04688 340.34064L364.04688 345.8094Q364.04688 346.48126 364.125 346.6844Q364.21875 346.8719 364.40625 346.98126Q364.59375 347.09064 364.95312 347.09064Q365.20312 347.09064 365.64062 347.02814ZM373.28125 347.29376Q372.40625 348.04376 371.57812 348.35626Q370.76562 348.66876 369.84375 348.66876Q368.29688 348.66876 367.46875 347.91876Q366.65625 347.15314 366.65625 345.98126Q366.65625 345.3094 366.96875 344.7469Q367.28125 344.16876 367.78125 343.825Q368.28125 343.48126 368.92188 343.3094Q369.39062 343.1844 370.32812 343.075Q372.23438 342.84064 373.14062 342.52814Q373.15625 342.2 373.15625 342.10626Q373.15625 341.15314 372.70312 340.7469Q372.09375 340.21564 370.90625 340.21564Q369.78125 340.21564 369.25 340.60626Q368.71875 340.9969 368.46875 341.9969L366.92188 341.77814Q367.14062 340.77814 367.60938 340.16876Q368.09375 339.5594 369.0 339.23126Q369.92188 338.90314 371.14062 338.90314Q372.32812 338.90314 373.07812 339.1844Q373.82812 339.46564 374.17188 339.90314Q374.53125 340.325 374.67188 340.96564Q374.75 341.3719 374.75 342.4344L374.75 344.54376Q374.75 346.7469 374.84375 347.34064Q374.95312 347.91876 375.25 348.45L373.59375 348.45Q373.34375 347.95 373.28125 347.29376ZM373.14062 343.7625Q372.28125 344.1219 370.5625 344.35626Q369.59375 344.4969 369.1875 344.6844Q368.78125 344.85626 368.5625 345.2Q368.34375 345.52814 368.34375 345.95Q368.34375 346.575 368.8125 346.9969Q369.29688 347.41876 370.21875 347.41876Q371.14062 347.41876 371.84375 347.02814Q372.5625 346.6219 372.89062 345.9344Q373.14062 345.3875 373.14062 344.34064L373.14062 343.7625ZM380.64062 347.02814L380.875 348.4344Q380.20312 348.575 379.67188 348.575Q378.8125 348.575 378.32812 348.3094Q377.85938 348.02814 377.67188 347.59064Q377.48438 347.1375 377.48438 345.71564L377.48438 340.34064L376.3125 340.34064L376.3125 339.1219L377.48438 339.1219L377.48438 336.8094L379.04688 335.85626L379.04688 339.1219L380.64062 339.1219L380.64062 340.34064L379.04688 340.34064L379.04688 345.8094Q379.04688 346.48126 379.125 346.6844Q379.21875 346.8719 379.40625 346.98126Q379.59375 347.09064 379.95312 347.09064Q380.20312 347.09064 380.64062 347.02814ZM382.20312 337.3875L382.20312 335.5594L383.78125 335.5594L383.78125 337.3875L382.20312 337.3875ZM382.20312 348.45L382.20312 339.1219L383.78125 339.1219L383.78125 348.45L382.20312 348.45ZM385.59375 343.77814Q385.59375 341.1844 387.04688 339.9344Q388.25 338.90314 389.96875 338.90314Q391.90625 338.90314 393.125 340.16876Q394.34375 341.4344 394.34375 343.65314Q394.34375 345.45 393.79688 346.48126Q393.26562 347.5125 392.23438 348.09064Q391.20312 348.66876 389.96875 348.66876Q388.01562 348.66876 386.79688 347.41876Q385.59375 346.15314 385.59375 343.77814ZM387.21875 343.77814Q387.21875 345.575 388.0 346.46564Q388.78125 347.35626 389.96875 347.35626Q391.15625 347.35626 391.9375 346.46564Q392.71875 345.5594 392.71875 343.73126Q392.71875 341.9969 391.92188 341.10626Q391.14062 340.21564 389.96875 340.21564Q388.78125 340.21564 388.0 341.10626Q387.21875 341.9969 387.21875 343.77814ZM396.1875 348.45L396.1875 339.1219L397.60938 339.1219L397.60938 340.45Q398.64062 338.90314 400.57812 338.90314Q401.42188 338.90314 402.125 339.21564Q402.84375 339.5125 403.1875 340.0125Q403.54688 340.4969 403.6875 341.16876Q403.76562 341.60626 403.76562 342.71564L403.76562 348.45L402.1875 348.45L402.1875 342.77814Q402.1875 341.8094 402.0 341.325Q401.82812 340.84064 401.34375 340.5594Q400.875 340.27814 400.25 340.27814Q399.23438 340.27814 398.5 340.91876Q397.76562 341.5594 397.76562 343.35626L397.76562 348.45L396.1875 348.45Z" fill-rule="nonzero"/><path fill="#ffffff" d="M35.55001 195.82812L24.190638 195.82812L24.190638 200.07812L22.659388 200.07812L22.659388 189.85938L24.190638 189.85938L24.190638 194.125L35.55001 194.125L35.55001 195.82812ZM24.487513 187.29688L22.659388 187.29688L22.659388 185.71875L24.487513 185.71875L24.487513 187.29688ZM35.55001 187.29688L26.221888 187.29688L26.221888 185.71875L35.55001 185.71875L35.55001 187.29688ZM35.55001 183.3125L26.221888 183.3125L26.221888 181.89062L27.518763 181.89062Q26.846888 181.45312 26.425013 180.73438Q26.003138 180.0 26.003138 179.0625Q26.003138 178.03125 26.440638 177.375Q26.862513 176.70312 27.643763 176.4375Q26.003138 175.32812 26.003138 173.54688Q26.003138 172.15625 26.784388 171.42188Q27.550013 170.67188 29.143763 170.67188L35.55001 170.67188L35.55001 172.23438L29.675013 172.23438Q28.721888 172.23438 28.300013 172.39062Q27.878138 172.54688 27.628138 172.95312Q27.378138 173.35938 27.378138 173.90625Q27.378138 174.89062 28.034388 175.54688Q28.690638 176.1875 30.128138 176.1875L35.55001 176.1875L35.55001 177.76562L29.487513 177.76562Q28.425013 177.76562 27.909388 178.15625Q27.378138 178.54688 27.378138 179.42188Q27.378138 180.09375 27.737513 180.65625Q28.081263 181.21875 28.753138 181.48438Q29.425013 181.73438 30.706263 181.73438L35.55001 181.73438L35.55001 183.3125ZM32.55001 162.92188L32.753136 161.28125Q34.17501 161.67188 34.971886 162.71875Q35.76876 163.76562 35.76876 165.39062Q35.76876 167.4375 34.503136 168.64062Q33.23751 169.84375 30.956263 169.84375Q28.612513 169.84375 27.315638 168.64062Q26.003138 167.42188 26.003138 165.48438Q26.003138 163.60938 27.284388 162.42188Q28.550013 161.23438 30.862513 161.23438Q31.003138 161.23438 31.284388 161.25L31.284388 168.20312Q32.83126 168.125 33.64376 167.34375Q34.45626 166.54688 34.45626 165.39062Q34.45626 164.51562 34.003136 163.90625Q33.55001 163.28125 32.55001 162.92188ZM29.987513 168.125L29.987513 162.90625Q28.815638 163.01562 28.221888 163.5Q27.300013 164.26562 27.300013 165.46875Q27.300013 166.54688 28.034388 167.29688Q28.768763 168.03125 29.987513 168.125ZM39.128136 154.28125L22.659388 154.28125L22.659388 150.78125L23.971888 150.78125L23.971888 152.70312L37.815636 152.70312L37.815636 150.78125L39.128136 150.78125L39.128136 154.28125ZM35.55001 149.3125L26.221888 149.3125L26.221888 147.89062L27.518763 147.89062Q26.846888 147.45312 26.425013 146.73438Q26.003138 146.0 26.003138 145.0625Q26.003138 144.03125 26.440638 143.375Q26.862513 142.70312 27.643763 142.4375Q26.003138 141.32812 26.003138 139.54688Q26.003138 138.15625 26.784388 137.42188Q27.550013 136.67188 29.143763 136.67188L35.55001 136.67188L35.55001 138.23438L29.675013 138.23438Q28.721888 138.23438 28.300013 138.39062Q27.878138 138.54688 27.628138 138.95312Q27.378138 139.35938 27.378138 139.90625Q27.378138 140.89062 28.034388 141.54688Q28.690638 142.1875 30.128138 142.1875L35.55001 142.1875L35.55001 143.76562L29.487513 143.76562Q28.425013 143.76562 27.909388 144.15625Q27.378138 144.54688 27.378138 145.42188Q27.378138 146.09375 27.737513 146.65625Q28.081263 147.21875 28.753138 147.48438Q29.425013 147.73438 30.706263 147.73438L35.55001 147.73438L35.55001 149.3125ZM32.76876 135.95312L32.51876 134.375Q33.45626 134.25 33.95626 133.65625Q34.45626 133.04688 34.45626 131.96875Q34.45626 130.875 34.01876 130.34375Q33.565636 129.8125 32.971886 129.8125Q32.440636 129.8125 32.128136 130.28125Q31.925013 130.60938 31.596888 131.90625Q31.159388 133.64062 30.846888 134.3125Q30.518763 134.98438 29.956263 135.34375Q29.378138 135.6875 28.690638 135.6875Q28.065638 135.6875 27.534388 135.40625Q27.003138 135.10938 26.659388 134.625Q26.378138 134.25 26.190638 133.60938Q26.003138 132.96875 26.003138 132.25Q26.003138 131.14062 26.331263 130.3125Q26.643763 129.48438 27.190638 129.09375Q27.721888 128.6875 28.628138 128.54688L28.831263 130.09375Q28.112513 130.20312 27.706263 130.70312Q27.300013 131.20312 27.300013 132.125Q27.300013 133.21875 27.659388 133.6875Q28.018763 134.15625 28.503138 134.15625Q28.815638 134.15625 29.065638 133.95312Q29.315638 133.76562 29.487513 133.35938Q29.565638 133.10938 29.893763 131.95312Q30.331263 130.28125 30.628138 129.625Q30.909388 128.95312 31.456263 128.57812Q32.003136 128.1875 32.80001 128.1875Q33.596886 128.1875 34.30001 128.65625Q35.003136 129.10938 35.39376 129.98438Q35.76876 130.85938 35.76876 131.95312Q35.76876 133.78125 35.01876 134.73438Q34.253136 135.6875 32.76876 135.95312ZM39.128136 123.671875L39.128136 127.15625L37.815636 127.15625L37.815636 125.25L23.971888 125.25L23.971888 127.15625L22.659388 127.15625L22.659388 123.671875L39.128136 123.671875Z" fill-rule="nonzero"/><path fill="#f3f3f3" d="M81.05 284.21564Q81.05 282.6844 81.3625 281.7625Q81.675 280.825 82.28438 280.325Q82.90938 279.825 83.84688 279.825Q84.53438 279.825 85.05 280.10626Q85.58125 280.3875 85.925 280.91876Q86.26875 281.4344 86.45625 282.1844Q86.64375 282.9344 86.64375 284.21564Q86.64375 285.73126 86.33125 286.65314Q86.03438 287.575 85.40938 288.09064Q84.8 288.59064 83.84688 288.59064Q82.6125 288.59064 81.89375 287.7Q81.05 286.6375 81.05 284.21564ZM82.12813 284.21564Q82.12813 286.325 82.62813 287.02814Q83.12813 287.73126 83.84688 287.73126Q84.58125 287.73126 85.06563 287.02814Q85.56563 286.325 85.56563 284.21564Q85.56563 282.09064 85.06563 281.40314Q84.58125 280.7 83.83125 280.7Q83.1125 280.7 82.675 281.3094Q82.12813 282.09064 82.12813 284.21564Z" fill-rule="nonzero"/><path fill="#f3f3f3" d="M71.01875 223.725L69.97188 223.725L69.97188 217.00626Q69.58125 217.36563 68.95625 217.74063Q68.34688 218.1 67.8625 218.27188L67.8625 217.25626Q68.7375 216.83438 69.39375 216.25626Q70.06563 215.6625 70.34688 215.1L71.01875 215.1L71.01875 223.725ZM74.05 219.49063Q74.05 217.95938 74.3625 217.0375Q74.675 216.1 75.28438 215.6Q75.90938 215.1 76.84688 215.1Q77.53438 215.1 78.05 215.38126Q78.58125 215.6625 78.925 216.19376Q79.26875 216.70938 79.45625 217.45938Q79.64375 218.20938 79.64375 219.49063Q79.64375 221.00626 79.33125 221.92813Q79.03438 222.85 78.40938 223.36563Q77.8 223.86563 76.84688 223.86563Q75.6125 223.86563 74.89375 222.975Q74.05 221.9125 74.05 219.49063ZM75.12813 219.49063Q75.12813 221.6 75.62813 222.30313Q76.12813 223.00626 76.84688 223.00626Q77.58125 223.00626 78.06563 222.30313Q78.56563 221.6 78.56563 219.49063Q78.56563 217.36563 78.06563 216.67813Q77.58125 215.975 76.83125 215.975Q76.1125 215.975 75.675 216.58438Q75.12813 217.36563 75.12813 219.49063ZM81.05 219.49063Q81.05 217.95938 81.3625 217.0375Q81.675 216.1 82.28438 215.6Q82.90938 215.1 83.84688 215.1Q84.53438 215.1 85.05 215.38126Q85.58125 215.6625 85.925 216.19376Q86.26875 216.70938 86.45625 217.45938Q86.64375 218.20938 86.64375 219.49063Q86.64375 221.00626 86.33125 221.92813Q86.03438 222.85 85.40938 223.36563Q84.8 223.86563 83.84688 223.86563Q82.6125 223.86563 81.89375 222.975Q81.05 221.9125 81.05 219.49063ZM82.12813 219.49063Q82.12813 221.6 82.62813 222.30313Q83.12813 223.00626 83.84688 223.00626Q84.58125 223.00626 85.06563 222.30313Q85.56563 221.6 85.56563 219.49063Q85.56563 217.36563 85.06563 216.67813Q84.58125 215.975 83.83125 215.975Q83.1125 215.975 82.675 216.58438Q82.12813 217.36563 82.12813 219.49063Z" fill-rule="nonzero"/><path fill="#f3f3f3" d="M72.59688 157.98438L72.59688 159.0L66.90938 159.0Q66.90938 158.625 67.03438 158.26562Q67.25313 157.6875 67.72188 157.125Q68.20625 156.5625 69.1125 155.82812Q70.51875 154.67188 71.00313 154.0Q71.50313 153.32812 71.50313 152.73438Q71.50313 152.10938 71.05 151.6875Q70.59688 151.25 69.87813 151.25Q69.1125 151.25 68.65938 151.70312Q68.20625 152.15625 68.19063 152.96875L67.1125 152.85938Q67.22188 151.64062 67.94063 151.01562Q68.675 150.375 69.90938 150.375Q71.14375 150.375 71.8625 151.0625Q72.58125 151.75 72.58125 152.76562Q72.58125 153.28125 72.3625 153.78125Q72.15938 154.26562 71.65938 154.82812Q71.175 155.375 70.05 156.32812Q69.09688 157.125 68.81563 157.42188Q68.55 157.70312 68.37813 157.98438L72.59688 157.98438ZM74.05 154.76562Q74.05 153.23438 74.3625 152.3125Q74.675 151.375 75.28438 150.875Q75.90938 150.375 76.84688 150.375Q77.53438 150.375 78.05 150.65625Q78.58125 150.9375 78.925 151.46875Q79.26875 151.98438 79.45625 152.73438Q79.64375 153.48438 79.64375 154.76562Q79.64375 156.28125 79.33125 157.20312Q79.03438 158.125 78.40938 158.64062Q77.8 159.14062 76.84688 159.14062Q75.6125 159.14062 74.89375 158.25Q74.05 157.1875 74.05 154.76562ZM75.12813 154.76562Q75.12813 156.875 75.62813 157.57812Q76.12813 158.28125 76.84688 158.28125Q77.58125 158.28125 78.06563 157.57812Q78.56563 156.875 78.56563 154.76562Q78.56563 152.64062 78.06563 151.95312Q77.58125 151.25 76.83125 151.25Q76.1125 151.25 75.675 151.85938Q75.12813 152.64062 75.12813 154.76562ZM81.05 154.76562Q81.05 153.23438 81.3625 152.3125Q81.675 151.375 82.28438 150.875Q82.90938 150.375 83.84688 150.375Q84.53438 150.375 85.05 150.65625Q85.58125 150.9375 85.925 151.46875Q86.26875 151.98438 86.45625 152.73438Q86.64375 153.48438 86.64375 154.76562Q86.64375 156.28125 86.33125 157.20312Q86.03438 158.125 85.40938 158.64062Q84.8 159.14062 83.84688 159.14062Q82.6125 159.14062 81.89375 158.25Q81.05 157.1875 81.05 154.76562ZM82.12813 154.76562Q82.12813 156.875 82.62813 157.57812Q83.12813 158.28125 83.84688 158.28125Q84.58125 158.28125 85.06563 157.57812Q85.56563 156.875 85.56563 154.76562Q85.56563 152.64062 85.06563 151.95312Q84.58125 151.25 83.83125 151.25Q83.1125 151.25 82.675 151.85938Q82.12813 152.64062 82.12813 154.76562Z" fill-rule="nonzero"/><path fill="#f3f3f3" d="M67.05 92.00938L68.1125 91.86875Q68.28438 92.75938 68.72188 93.16563Q69.15938 93.55625 69.78438 93.55625Q70.53438 93.55625 71.05 93.04063Q71.56563 92.525 71.56563 91.75938Q71.56563 91.04063 71.08125 90.57188Q70.6125 90.0875 69.87813 90.0875Q69.58125 90.0875 69.12813 90.2125L69.25313 89.275Q69.3625 89.29063 69.425 89.29063Q70.09688 89.29063 70.62813 88.94688Q71.175 88.5875 71.175 87.85313Q71.175 87.275 70.78438 86.9Q70.39375 86.50938 69.76875 86.50938Q69.15938 86.50938 68.7375 86.9Q68.33125 87.29063 68.22188 88.05625L67.15938 87.86875Q67.34688 86.82188 68.03438 86.24375Q68.72188 85.65 69.7375 85.65Q70.44063 85.65 71.03438 85.9625Q71.62813 86.25938 71.94063 86.775Q72.25313 87.29063 72.25313 87.88438Q72.25313 88.43125 71.95625 88.9Q71.65938 89.35313 71.08125 89.61875Q71.83125 89.79063 72.25313 90.35313Q72.675 90.9 72.675 91.74375Q72.675 92.86875 71.84688 93.65Q71.03438 94.43125 69.78438 94.43125Q68.65938 94.43125 67.90938 93.75938Q67.15938 93.07188 67.05 92.00938ZM74.05 90.04063Q74.05 88.50938 74.3625 87.5875Q74.675 86.65 75.28438 86.15Q75.90938 85.65 76.84688 85.65Q77.53438 85.65 78.05 85.93125Q78.58125 86.2125 78.925 86.74375Q79.26875 87.25938 79.45625 88.00938Q79.64375 88.75938 79.64375 90.04063Q79.64375 91.55625 79.33125 92.47813Q79.03438 93.4 78.40938 93.91563Q77.8 94.41563 76.84688 94.41563Q75.6125 94.41563 74.89375 93.525Q74.05 92.4625 74.05 90.04063ZM75.12813 90.04063Q75.12813 92.15 75.62813 92.85313Q76.12813 93.55625 76.84688 93.55625Q77.58125 93.55625 78.06563 92.85313Q78.56563 92.15 78.56563 90.04063Q78.56563 87.91563 78.06563 87.22813Q77.58125 86.525 76.83125 86.525Q76.1125 86.525 75.675 87.13438Q75.12813 87.91563 75.12813 90.04063ZM81.05 90.04063Q81.05 88.50938 81.3625 87.5875Q81.675 86.65 82.28438 86.15Q82.90938 85.65 83.84688 85.65Q84.53438 85.65 85.05 85.93125Q85.58125 86.2125 85.925 86.74375Q86.26875 87.25938 86.45625 88.00938Q86.64375 88.75938 86.64375 90.04063Q86.64375 91.55625 86.33125 92.47813Q86.03438 93.4 85.40938 93.91563Q84.8 94.41563 83.84688 94.41563Q82.6125 94.41563 81.89375 93.525Q81.05 92.4625 81.05 90.04063ZM82.12813 90.04063Q82.12813 92.15 82.62813 92.85313Q83.12813 93.55625 83.84688 93.55625Q84.58125 93.55625 85.06563 92.85313Q85.56563 92.15 85.56563 90.04063Q85.56563 87.91563 85.06563 87.22813Q84.58125 86.525 83.83125 86.525Q83.1125 86.525 82.675 87.13438Q82.12813 87.91563 82.12813 90.04063Z" fill-rule="nonzero"/><path fill="#f3f3f3" d="M70.425 29.55L70.425 27.4875L66.70625 27.4875L66.70625 26.51875L70.62813 20.95625L71.4875 20.95625L71.4875 26.51875L72.64375 26.51875L72.64375 27.4875L71.4875 27.4875L71.4875 29.55L70.425 29.55ZM70.425 26.51875L70.425 22.659374L67.7375 26.51875L70.425 26.51875ZM74.05 25.315624Q74.05 23.784374 74.3625 22.8625Q74.675 21.925 75.28438 21.425Q75.90938 20.925 76.84688 20.925Q77.53438 20.925 78.05 21.20625Q78.58125 21.4875 78.925 22.01875Q79.26875 22.534374 79.45625 23.284374Q79.64375 24.034374 79.64375 25.315624Q79.64375 26.83125 79.33125 27.753124Q79.03438 28.675 78.40938 29.190624Q77.8 29.690624 76.84688 29.690624Q75.6125 29.690624 74.89375 28.8Q74.05 27.7375 74.05 25.315624ZM75.12813 25.315624Q75.12813 27.425 75.62813 28.128124Q76.12813 28.83125 76.84688 28.83125Q77.58125 28.83125 78.06563 28.128124Q78.56563 27.425 78.56563 25.315624Q78.56563 23.190624 78.06563 22.503124Q77.58125 21.8 76.83125 21.8Q76.1125 21.8 75.675 22.409374Q75.12813 23.190624 75.12813 25.315624ZM81.05 25.315624Q81.05 23.784374 81.3625 22.8625Q81.675 21.925 82.28438 21.425Q82.90938 20.925 83.84688 20.925Q84.53438 20.925 85.05 21.20625Q85.58125 21.4875 85.925 22.01875Q86.26875 22.534374 86.45625 23.284374Q86.64375 24.034374 86.64375 25.315624Q86.64375 26.83125 86.33125 27.753124Q86.03438 28.675 85.40938 29.190624Q84.8 29.690624 83.84688 29.690624Q82.6125 29.690624 81.89375 28.8Q81.05 27.7375 81.05 25.315624ZM82.12813 25.315624Q82.12813 27.425 82.62813 28.128124Q83.12813 28.83125 83.84688 28.83125Q84.58125 28.83125 85.06563 28.128124Q85.56563 27.425 85.56563 25.315624Q85.56563 23.190624 85.06563 22.503124Q84.58125 21.8 83.83125 21.8Q83.1125 21.8 82.675 22.409374Q82.12813 23.190624 82.12813 25.315624Z" fill-rule="nonzero"/><path fill="#f3f3f3" d="M129.73997 299.16876L130.77122 299.3094Q130.59935 300.3719 129.89622 300.98126Q129.1931 301.59064 128.17747 301.59064Q126.896225 301.59064 126.114975 300.7625Q125.34935 299.91876 125.34935 298.35626Q125.34935 297.35626 125.677475 296.60626Q126.021225 295.84064 126.6931 295.46564Q127.3806 295.09064 128.1931 295.09064Q129.1931 295.09064 129.83372 295.60626Q130.48997 296.10626 130.67747 297.0594L129.64622 297.21564Q129.5056 296.59064 129.1306 296.27814Q128.7556 295.95 128.22435 295.95Q127.427475 295.95 126.927475 296.52814Q126.427475 297.09064 126.427475 298.325Q126.427475 299.59064 126.91185 300.15314Q127.396225 300.71564 128.16185 300.71564Q128.78685 300.71564 129.1931 300.34064Q129.61497 299.96564 129.73997 299.16876ZM131.64622 301.45L131.64622 292.85626L132.70872 292.85626L132.70872 301.45L131.64622 301.45ZM134.28685 298.34064Q134.28685 296.60626 135.23997 295.77814Q136.03685 295.09064 137.1931 295.09064Q138.47435 295.09064 139.28685 295.9344Q140.11497 296.7625 140.11497 298.2469Q140.11497 299.45 139.7556 300.1375Q139.39622 300.825 138.6931 301.21564Q138.0056 301.59064 137.1931 301.59064Q135.89622 301.59064 135.08372 300.7625Q134.28685 299.91876 134.28685 298.34064ZM135.36497 298.34064Q135.36497 299.52814 135.8806 300.1219Q136.41185 300.71564 137.1931 300.71564Q137.98997 300.71564 138.5056 300.1219Q139.02122 299.52814 139.02122 298.3094Q139.02122 297.15314 138.48997 296.5594Q137.97435 295.96564 137.1931 295.96564Q136.41185 295.96564 135.8806 296.5594Q135.36497 297.1375 135.36497 298.34064ZM140.97435 301.45L143.23997 298.21564L141.14622 295.23126L142.45872 295.23126L143.41185 296.6844Q143.67747 297.10626 143.84935 297.3875Q144.09935 296.9969 144.3181 296.7L145.36497 295.23126L146.6306 295.23126L144.47435 298.15314L146.78685 301.45L145.5056 301.45L144.22435 299.5125L143.8806 298.9969L142.23997 301.45L140.97435 301.45ZM151.6931 303.98126Q150.8181 302.8719 150.20872 301.40314Q149.61497 299.91876 149.61497 298.34064Q149.61497 296.95 150.05247 295.66876Q150.58372 294.1844 151.6931 292.71564L152.4431 292.71564Q151.73997 293.9344 151.5056 294.45Q151.14622 295.2625 150.9431 296.1375Q150.6931 297.23126 150.6931 298.34064Q150.6931 301.16876 152.4431 303.98126L151.6931 303.98126ZM154.64622 301.45L153.66185 301.45L153.66185 292.85626L154.72435 292.85626L154.72435 295.91876Q155.39622 295.09064 156.42747 295.09064Q157.0056 295.09064 157.5056 295.325Q158.02122 295.54376 158.34935 295.96564Q158.6931 296.3875 158.8806 296.98126Q159.0681 297.575 159.0681 298.2469Q159.0681 299.84064 158.27122 300.71564Q157.47435 301.59064 156.3806 301.59064Q155.27122 301.59064 154.64622 300.66876L154.64622 301.45ZM154.6306 298.29376Q154.6306 299.40314 154.9431 299.90314Q155.4431 300.71564 156.28685 300.71564Q156.97435 300.71564 157.47435 300.1219Q157.98997 299.52814 157.98997 298.325Q157.98997 297.10626 157.5056 296.52814Q157.02122 295.95 156.33372 295.95Q155.64622 295.95 155.1306 296.5594Q154.6306 297.15314 154.6306 298.29376ZM160.6306 303.84064L160.5056 302.85626Q160.84935 302.95 161.11497 302.95Q161.45872 302.95 161.66185 302.825Q161.8806 302.71564 162.02122 302.5125Q162.11497 302.34064 162.34935 301.71564Q162.36497 301.6375 162.4431 301.46564L160.0681 295.23126L161.20872 295.23126L162.5056 298.825Q162.7556 299.5125 162.95872 300.27814Q163.14622 299.54376 163.39622 298.85626L164.72435 295.23126L165.77122 295.23126L163.41185 301.5594Q163.02122 302.575 162.8181 302.96564Q162.53685 303.4969 162.16185 303.73126Q161.80247 303.98126 161.30247 303.98126Q161.0056 303.98126 160.6306 303.84064ZM167.97435 300.5125L168.1306 301.4344Q167.67747 301.52814 167.33372 301.52814Q166.7556 301.52814 166.4431 301.35626Q166.1306 301.16876 165.98997 300.8719Q165.86497 300.575 165.86497 299.6219L165.86497 296.04376L165.09935 296.04376L165.09935 295.23126L165.86497 295.23126L165.86497 293.6844L166.91185 293.0594L166.91185 295.23126L167.97435 295.23126L167.97435 296.04376L166.91185 296.04376L166.91185 299.6844Q166.91185 300.1375 166.95872 300.2625Q167.02122 300.3875 167.14622 300.46564Q167.27122 300.54376 167.5056 300.54376Q167.6931 300.54376 167.97435 300.5125ZM172.92747 299.45L174.02122 299.575Q173.77122 300.52814 173.0681 301.0594Q172.36497 301.59064 171.28685 301.59064Q169.92747 301.59064 169.11497 300.7469Q168.3181 299.90314 168.3181 298.3875Q168.3181 296.825 169.1306 295.96564Q169.9431 295.09064 171.22435 295.09064Q172.47435 295.09064 173.2556 295.9344Q174.05247 296.77814 174.05247 298.325Q174.05247 298.41876 174.05247 298.60626L169.41185 298.60626Q169.47435 299.6375 169.98997 300.1844Q170.5056 300.71564 171.28685 300.71564Q171.86497 300.71564 172.27122 300.41876Q172.6931 300.10626 172.92747 299.45ZM169.47435 297.7469L172.9431 297.7469Q172.8806 296.95 172.55247 296.5594Q172.03685 295.95 171.23997 295.95Q170.5056 295.95 170.0056 296.4344Q169.52122 296.91876 169.47435 297.7469ZM179.73997 299.16876L180.77122 299.3094Q180.59935 300.3719 179.89622 300.98126Q179.1931 301.59064 178.17747 301.59064Q176.89622 301.59064 176.11497 300.7625Q175.34935 299.91876 175.34935 298.35626Q175.34935 297.35626 175.67747 296.60626Q176.02122 295.84064 176.6931 295.46564Q177.3806 295.09064 178.1931 295.09064Q179.1931 295.09064 179.83372 295.60626Q180.48997 296.10626 180.67747 297.0594L179.64622 297.21564Q179.5056 296.59064 179.1306 296.27814Q178.7556 295.95 178.22435 295.95Q177.42747 295.95 176.92747 296.52814Q176.42747 297.09064 176.42747 298.325Q176.42747 299.59064 176.91185 300.15314Q177.39622 300.71564 178.16185 300.71564Q178.78685 300.71564 179.1931 300.34064Q179.61497 299.96564 179.73997 299.16876ZM181.28685 298.34064Q181.28685 296.60626 182.23997 295.77814Q183.03685 295.09064 184.1931 295.09064Q185.47435 295.09064 186.28685 295.9344Q187.11497 296.7625 187.11497 298.2469Q187.11497 299.45 186.7556 300.1375Q186.39622 300.825 185.6931 301.21564Q185.0056 301.59064 184.1931 301.59064Q182.89622 301.59064 182.08372 300.7625Q181.28685 299.91876 181.28685 298.34064ZM182.36497 298.34064Q182.36497 299.52814 182.8806 300.1219Q183.41185 300.71564 184.1931 300.71564Q184.98997 300.71564 185.5056 300.1219Q186.02122 299.52814 186.02122 298.3094Q186.02122 297.15314 185.48997 296.5594Q184.97435 295.96564 184.1931 295.96564Q183.41185 295.96564 182.8806 296.5594Q182.36497 297.1375 182.36497 298.34064ZM192.70872 301.45L192.70872 300.66876Q192.11497 301.59064 190.97435 301.59064Q190.22435 301.59064 189.59935 301.1844Q188.97435 300.7625 188.6306 300.02814Q188.28685 299.29376 188.28685 298.34064Q188.28685 297.41876 188.59935 296.65314Q188.91185 295.8875 189.53685 295.4969Q190.16185 295.09064 190.92747 295.09064Q191.48997 295.09064 191.92747 295.325Q192.36497 295.5594 192.64622 295.9344L192.64622 292.85626L193.6931 292.85626L193.6931 301.45L192.70872 301.45ZM189.3806 298.34064Q189.3806 299.54376 189.8806 300.1375Q190.3806 300.71564 191.0681 300.71564Q191.7556 300.71564 192.23997 300.15314Q192.72435 299.59064 192.72435 298.4344Q192.72435 297.15314 192.22435 296.5594Q191.73997 295.96564 191.02122 295.96564Q190.3181 295.96564 189.84935 296.54376Q189.3806 297.10626 189.3806 298.34064ZM199.92747 299.45L201.02122 299.575Q200.77122 300.52814 200.0681 301.0594Q199.36497 301.59064 198.28685 301.59064Q196.92747 301.59064 196.11497 300.7469Q195.3181 299.90314 195.3181 298.3875Q195.3181 296.825 196.1306 295.96564Q196.9431 295.09064 198.22435 295.09064Q199.47435 295.09064 200.2556 295.9344Q201.05247 296.77814 201.05247 298.325Q201.05247 298.41876 201.05247 298.60626L196.41185 298.60626Q196.47435 299.6375 196.98997 300.1844Q197.5056 300.71564 198.28685 300.71564Q198.86497 300.71564 199.27122 300.41876Q199.6931 300.10626 199.92747 299.45ZM196.47435 297.7469L199.9431 297.7469Q199.8806 296.95 199.55247 296.5594Q199.03685 295.95 198.23997 295.95Q197.5056 295.95 197.0056 296.4344Q196.52122 296.91876 196.47435 297.7469ZM205.67747 294.075L205.67747 292.85626L206.73997 292.85626L206.73997 294.075L205.67747 294.075ZM205.67747 301.45L205.67747 295.23126L206.73997 295.23126L206.73997 301.45L205.67747 301.45ZM208.67747 301.45L208.67747 295.23126L209.61497 295.23126L209.61497 296.10626Q210.30247 295.09064 211.59935 295.09064Q212.16185 295.09064 212.6306 295.29376Q213.11497 295.4969 213.34935 295.825Q213.58372 296.15314 213.67747 296.59064Q213.72435 296.8875 213.72435 297.6219L213.72435 301.45L212.67747 301.45L212.67747 297.66876Q212.67747 297.0125 212.55247 296.7Q212.42747 296.3875 212.11497 296.2Q211.80247 295.9969 211.3806 295.9969Q210.70872 295.9969 210.20872 296.4344Q209.72435 296.85626 209.72435 298.04376L209.72435 301.45L208.67747 301.45ZM217.97435 300.5125L218.1306 301.4344Q217.67747 301.52814 217.33372 301.52814Q216.7556 301.52814 216.4431 301.35626Q216.1306 301.16876 215.98997 300.8719Q215.86497 300.575 215.86497 299.6219L215.86497 296.04376L215.09935 296.04376L215.09935 295.23126L215.86497 295.23126L215.86497 293.6844L216.91185 293.0594L216.91185 295.23126L217.97435 295.23126L217.97435 296.04376L216.91185 296.04376L216.91185 299.6844Q216.91185 300.1375 216.95872 300.2625Q217.02122 300.3875 217.14622 300.46564Q217.27122 300.54376 217.5056 300.54376Q217.6931 300.54376 217.97435 300.5125ZM222.92747 299.45L224.02122 299.575Q223.77122 300.52814 223.0681 301.0594Q222.36497 301.59064 221.28685 301.59064Q219.92747 301.59064 219.11497 300.7469Q218.3181 299.90314 218.3181 298.3875Q218.3181 296.825 219.1306 295.96564Q219.9431 295.09064 221.22435 295.09064Q222.47435 295.09064 223.2556 295.9344Q224.05247 296.77814 224.05247 298.325Q224.05247 298.41876 224.05247 298.60626L219.41185 298.60626Q219.47435 299.6375 219.98997 300.1844Q220.5056 300.71564 221.28685 300.71564Q221.86497 300.71564 222.27122 300.41876Q222.6931 300.10626 222.92747 299.45ZM219.47435 297.7469L222.9431 297.7469Q222.8806 296.95 222.55247 296.5594Q222.03685 295.95 221.23997 295.95Q220.5056 295.95 220.0056 296.4344Q219.52122 296.91876 219.47435 297.7469ZM225.66185 301.45L225.66185 295.23126L226.61497 295.23126L226.61497 296.16876Q226.97435 295.5125 227.27122 295.3094Q227.58372 295.09064 227.95872 295.09064Q228.48997 295.09064 229.03685 295.41876L228.67747 296.40314Q228.28685 296.16876 227.91185 296.16876Q227.55247 296.16876 227.27122 296.3875Q227.0056 296.59064 226.89622 296.96564Q226.70872 297.52814 226.70872 298.1844L226.70872 301.45L225.66185 301.45ZM229.67747 303.84064L229.67747 295.23126L230.6306 295.23126L230.6306 296.02814Q230.97435 295.5594 231.39622 295.325Q231.83372 295.09064 232.4431 295.09064Q233.23997 295.09064 233.84935 295.4969Q234.45872 295.90314 234.7556 296.65314Q235.0681 297.40314 235.0681 298.29376Q235.0681 299.2469 234.72435 300.0125Q234.39622 300.77814 233.73997 301.1844Q233.08372 301.59064 232.36497 301.59064Q231.83372 301.59064 231.41185 301.3719Q230.98997 301.1375 230.72435 300.8094L230.72435 303.84064L229.67747 303.84064ZM230.6306 298.3719Q230.6306 299.575 231.11497 300.15314Q231.59935 300.71564 232.28685 300.71564Q232.98997 300.71564 233.48997 300.1219Q233.98997 299.52814 233.98997 298.27814Q233.98997 297.09064 233.5056 296.5125Q233.02122 295.91876 232.33372 295.91876Q231.66185 295.91876 231.14622 296.54376Q230.6306 297.16876 230.6306 298.3719ZM236.66185 301.45L236.66185 295.23126L237.61497 295.23126L237.61497 296.16876Q237.97435 295.5125 238.27122 295.3094Q238.58372 295.09064 238.95872 295.09064Q239.48997 295.09064 240.03685 295.41876L239.67747 296.40314Q239.28685 296.16876 238.91185 296.16876Q238.55247 296.16876 238.27122 296.3875Q238.0056 296.59064 237.89622 296.96564Q237.70872 297.52814 237.70872 298.1844L237.70872 301.45L236.66185 301.45ZM244.92747 299.45L246.02122 299.575Q245.77122 300.52814 245.0681 301.0594Q244.36497 301.59064 243.28685 301.59064Q241.92747 301.59064 241.11497 300.7469Q240.3181 299.90314 240.3181 298.3875Q240.3181 296.825 241.1306 295.96564Q241.9431 295.09064 243.22435 295.09064Q244.47435 295.09064 245.2556 295.9344Q246.05247 296.77814 246.05247 298.325Q246.05247 298.41876 246.05247 298.60626L241.41185 298.60626Q241.47435 299.6375 241.98997 300.1844Q242.5056 300.71564 243.28685 300.71564Q243.86497 300.71564 244.27122 300.41876Q244.6931 300.10626 244.92747 299.45ZM241.47435 297.7469L244.9431 297.7469Q244.8806 296.95 244.55247 296.5594Q244.03685 295.95 243.23997 295.95Q242.5056 295.95 242.0056 296.4344Q241.52122 296.91876 241.47435 297.7469ZM249.97435 300.5125L250.1306 301.4344Q249.67747 301.52814 249.33372 301.52814Q248.7556 301.52814 248.4431 301.35626Q248.1306 301.16876 247.98997 300.8719Q247.86497 300.575 247.86497 299.6219L247.86497 296.04376L247.09935 296.04376L247.09935 295.23126L247.86497 295.23126L247.86497 293.6844L248.91185 293.0594L248.91185 295.23126L249.97435 295.23126L249.97435 296.04376L248.91185 296.04376L248.91185 299.6844Q248.91185 300.1375 248.95872 300.2625Q249.02122 300.3875 249.14622 300.46564Q249.27122 300.54376 249.5056 300.54376Q249.6931 300.54376 249.97435 300.5125ZM254.92747 299.45L256.02124 299.575Q255.77122 300.52814 255.0681 301.0594Q254.36497 301.59064 253.28685 301.59064Q251.92747 301.59064 251.11497 300.7469Q250.3181 299.90314 250.3181 298.3875Q250.3181 296.825 251.1306 295.96564Q251.9431 295.09064 253.22435 295.09064Q254.47435 295.09064 255.2556 295.9344Q256.0525 296.77814 256.0525 298.325Q256.0525 298.41876 256.0525 298.60626L251.41185 298.60626Q251.47435 299.6375 251.98997 300.1844Q252.5056 300.71564 253.28685 300.71564Q253.86497 300.71564 254.27122 300.41876Q254.6931 300.10626 254.92747 299.45ZM251.47435 297.7469L254.9431 297.7469Q254.8806 296.95 254.55247 296.5594Q254.03685 295.95 253.23997 295.95Q252.5056 295.95 252.0056 296.4344Q251.52122 296.91876 251.47435 297.7469ZM257.66187 301.45L257.66187 295.23126L258.615 295.23126L258.615 296.16876Q258.97437 295.5125 259.27124 295.3094Q259.58374 295.09064 259.95874 295.09064Q260.49 295.09064 261.03687 295.41876L260.6775 296.40314Q260.28687 296.16876 259.91187 296.16876Q259.5525 296.16876 259.27124 296.3875Q259.0056 296.59064 258.89624 296.96564Q258.70874 297.52814 258.70874 298.1844L258.70874 301.45L257.66187 301.45ZM262.365 303.98126L261.615 303.98126Q263.365 301.16876 263.365 298.34064Q263.365 297.2469 263.115 296.15314Q262.91187 295.27814 262.5525 294.46564Q262.3181 293.95 261.615 292.71564L262.365 292.71564Q263.45874 294.1844 263.99 295.66876Q264.4431 296.95 264.4431 298.34064Q264.4431 299.91876 263.83374 301.40314Q263.22437 302.8719 262.365 303.98126Z" fill-rule="nonzero"/><path fill="#f3f3f3" d="M301.76562 301.45L301.76562 292.85626L302.82812 292.85626L302.82812 301.45L301.76562 301.45ZM304.40625 298.34064Q304.40625 296.60626 305.35938 295.77814Q306.15625 295.09064 307.3125 295.09064Q308.59375 295.09064 309.40625 295.9344Q310.23438 296.7625 310.23438 298.2469Q310.23438 299.45 309.875 300.1375Q309.51562 300.825 308.8125 301.21564Q308.125 301.59064 307.3125 301.59064Q306.01562 301.59064 305.20312 300.7625Q304.40625 299.91876 304.40625 298.34064ZM305.48438 298.34064Q305.48438 299.52814 306.0 300.1219Q306.53125 300.71564 307.3125 300.71564Q308.10938 300.71564 308.625 300.1219Q309.14062 299.52814 309.14062 298.3094Q309.14062 297.15314 308.60938 296.5594Q308.09375 295.96564 307.3125 295.96564Q306.53125 295.96564 306.0 296.5594Q305.48438 297.1375 305.48438 298.34064ZM311.09375 301.45L313.35938 298.21564L311.26562 295.23126L312.57812 295.23126L313.53125 296.6844Q313.79688 297.10626 313.96875 297.3875Q314.21875 296.9969 314.4375 296.7L315.48438 295.23126L316.75 295.23126L314.59375 298.15314L316.90625 301.45L315.625 301.45L314.34375 299.5125L314.0 298.9969L312.35938 301.45L311.09375 301.45ZM316.78125 294.09064L316.78125 292.85626L317.84375 292.85626L317.84375 294.09064L316.78125 294.09064ZM315.45312 303.8719L315.64062 302.96564Q315.96875 303.04376 316.14062 303.04376Q316.46875 303.04376 316.625 302.825Q316.78125 302.6219 316.78125 301.7625L316.78125 295.23126L317.84375 295.23126L317.84375 301.79376Q317.84375 302.9344 317.54688 303.3875Q317.15625 303.98126 316.28125 303.98126Q315.84375 303.98126 315.45312 303.8719ZM319.79688 294.075L319.79688 292.85626L320.85938 292.85626L320.85938 294.075L319.79688 294.075ZM319.79688 301.45L319.79688 295.23126L320.85938 295.23126L320.85938 301.45L319.79688 301.45ZM325.09375 300.5125L325.25 301.4344Q324.79688 301.52814 324.45312 301.52814Q323.875 301.52814 323.5625 301.35626Q323.25 301.16876 323.10938 300.8719Q322.98438 300.575 322.98438 299.6219L322.98438 296.04376L322.21875 296.04376L322.21875 295.23126L322.98438 295.23126L322.98438 293.6844L324.03125 293.0594L324.03125 295.23126L325.09375 295.23126L325.09375 296.04376L324.03125 296.04376L324.03125 299.6844Q324.03125 300.1375 324.07812 300.2625Q324.14062 300.3875 324.26562 300.46564Q324.39062 300.54376 324.625 300.54376Q324.8125 300.54376 325.09375 300.5125ZM329.9375 301.45L328.03125 295.23126L329.125 295.23126L330.10938 298.825L330.48438 300.15314Q330.51562 300.0594 330.8125 298.8719L331.79688 295.23126L332.875 295.23126L333.8125 298.84064L334.125 300.02814L334.48438 298.825L335.54688 295.23126L336.57812 295.23126L334.625 301.45L333.53125 301.45L332.54688 297.71564L332.29688 296.66876L331.04688 301.45L329.9375 301.45ZM337.79688 294.075L337.79688 292.85626L338.85938 292.85626L338.85938 294.075L337.79688 294.075ZM337.79688 301.45L337.79688 295.23126L338.85938 295.23126L338.85938 301.45L337.79688 301.45ZM343.09375 300.5125L343.25 301.4344Q342.79688 301.52814 342.45312 301.52814Q341.875 301.52814 341.5625 301.35626Q341.25 301.16876 341.10938 300.8719Q340.98438 300.575 340.98438 299.6219L340.98438 296.04376L340.21875 296.04376L340.21875 295.23126L340.98438 295.23126L340.98438 293.6844L342.03125 293.0594L342.03125 295.23126L343.09375 295.23126L343.09375 296.04376L342.03125 296.04376L342.03125 299.6844Q342.03125 300.1375 342.07812 300.2625Q342.14062 300.3875 342.26562 300.46564Q342.39062 300.54376 342.625 300.54376Q342.8125 300.54376 343.09375 300.5125ZM343.79688 301.45L343.79688 292.85626L344.84375 292.85626L344.84375 295.9344Q345.57812 295.09064 346.70312 295.09064Q347.40625 295.09064 347.90625 295.3719Q348.42188 295.6375 348.64062 296.1219Q348.85938 296.59064 348.85938 297.5125L348.85938 301.45L347.8125 301.45L347.8125 297.5125Q347.8125 296.71564 347.46875 296.35626Q347.125 295.9969 346.5 295.9969Q346.03125 295.9969 345.60938 296.2469Q345.20312 296.48126 345.01562 296.90314Q344.84375 297.3094 344.84375 298.04376L344.84375 301.45L343.79688 301.45ZM350.40625 298.34064Q350.40625 296.60626 351.35938 295.77814Q352.15625 295.09064 353.3125 295.09064Q354.59375 295.09064 355.40625 295.9344Q356.23438 296.7625 356.23438 298.2469Q356.23438 299.45 355.875 300.1375Q355.51562 300.825 354.8125 301.21564Q354.125 301.59064 353.3125 301.59064Q352.01562 301.59064 351.20312 300.7625Q350.40625 299.91876 350.40625 298.34064ZM351.48438 298.34064Q351.48438 299.52814 352.0 300.1219Q352.53125 300.71564 353.3125 300.71564Q354.10938 300.71564 354.625 300.1219Q355.14062 299.52814 355.14062 298.3094Q355.14062 297.15314 354.60938 296.5594Q354.09375 295.96564 353.3125 295.96564Q352.53125 295.96564 352.0 296.5594Q351.48438 297.1375 351.48438 298.34064ZM361.875 301.45L361.875 300.52814Q361.14062 301.59064 359.89062 301.59064Q359.34375 301.59064 358.85938 301.3875Q358.39062 301.16876 358.15625 300.85626Q357.92188 300.52814 357.82812 300.0594Q357.76562 299.7625 357.76562 299.075L357.76562 295.23126L358.82812 295.23126L358.82812 298.6844Q358.82812 299.4969 358.89062 299.79376Q358.98438 300.2 359.29688 300.45Q359.625 300.6844 360.10938 300.6844Q360.57812 300.6844 360.98438 300.45Q361.40625 300.2 361.57812 299.77814Q361.76562 299.35626 361.76562 298.5594L361.76562 295.23126L362.8125 295.23126L362.8125 301.45L361.875 301.45ZM367.09375 300.5125L367.25 301.4344Q366.79688 301.52814 366.45312 301.52814Q365.875 301.52814 365.5625 301.35626Q365.25 301.16876 365.10938 300.8719Q364.98438 300.575 364.98438 299.6219L364.98438 296.04376L364.21875 296.04376L364.21875 295.23126L364.98438 295.23126L364.98438 293.6844L366.03125 293.0594L366.03125 295.23126L367.09375 295.23126L367.09375 296.04376L366.03125 296.04376L366.03125 299.6844Q366.03125 300.1375 366.07812 300.2625Q366.14062 300.3875 366.26562 300.46564Q366.39062 300.54376 366.625 300.54376Q366.8125 300.54376 367.09375 300.5125ZM371.125 301.45L371.125 292.85626L372.25 292.85626L372.25 301.45L371.125 301.45ZM380.0625 298.4344L381.1875 298.73126Q380.82812 300.1219 379.90625 300.85626Q378.98438 301.59064 377.64062 301.59064Q376.25 301.59064 375.375 301.02814Q374.5 300.46564 374.04688 299.40314Q373.59375 298.325 373.59375 297.09064Q373.59375 295.7469 374.10938 294.7469Q374.625 293.7469 375.5625 293.23126Q376.51562 292.71564 377.65625 292.71564Q378.9375 292.71564 379.8125 293.3719Q380.70312 294.02814 381.04688 295.21564L379.92188 295.48126Q379.625 294.54376 379.04688 294.1219Q378.48438 293.6844 377.625 293.6844Q376.64062 293.6844 375.96875 294.16876Q375.3125 294.6375 375.03125 295.4344Q374.76562 296.23126 374.76562 297.09064Q374.76562 298.1844 375.07812 298.9969Q375.40625 299.8094 376.07812 300.21564Q376.75 300.6219 377.54688 300.6219Q378.5 300.6219 379.15625 300.075Q379.82812 299.52814 380.0625 298.4344ZM382.375 299.59064L383.40625 299.4344Q383.5 300.0594 383.89062 300.3875Q384.29688 300.71564 385.03125 300.71564Q385.75 300.71564 386.09375 300.4344Q386.45312 300.1375 386.45312 299.73126Q386.45312 299.3719 386.14062 299.16876Q385.92188 299.02814 385.0625 298.8094Q383.90625 298.5125 383.45312 298.3094Q383.01562 298.09064 382.78125 297.71564Q382.54688 297.34064 382.54688 296.8719Q382.54688 296.46564 382.73438 296.10626Q382.92188 295.7469 383.25 295.5125Q383.5 295.34064 383.92188 295.21564Q384.34375 295.09064 384.84375 295.09064Q385.5625 295.09064 386.10938 295.3094Q386.67188 295.5125 386.9375 295.8719Q387.20312 296.23126 387.29688 296.825L386.26562 296.96564Q386.20312 296.4969 385.85938 296.23126Q385.53125 295.95 384.90625 295.95Q384.1875 295.95 383.875 296.2Q383.5625 296.4344 383.5625 296.7625Q383.5625 296.96564 383.6875 297.1219Q383.82812 297.29376 384.09375 297.40314Q384.25 297.46564 385.03125 297.66876Q386.15625 297.98126 386.59375 298.16876Q387.03125 298.35626 387.28125 298.71564Q387.53125 299.075 387.53125 299.6219Q387.53125 300.15314 387.21875 300.6219Q386.92188 301.075 386.34375 301.34064Q385.76562 301.59064 385.03125 301.59064Q383.8125 301.59064 383.17188 301.09064Q382.54688 300.575 382.375 299.59064Z" fill-rule="nonzero"/><path fill="#f3f3f3" d="M460.38504 301.45L460.38504 292.85626L461.44754 292.85626L461.44754 301.45L460.38504 301.45ZM463.02567 298.34064Q463.02567 296.60626 463.9788 295.77814Q464.77567 295.09064 465.93192 295.09064Q467.21317 295.09064 468.02567 295.9344Q468.8538 296.7625 468.8538 298.2469Q468.8538 299.45 468.49442 300.1375Q468.13504 300.825 467.43192 301.21564Q466.74442 301.59064 465.93192 301.59064Q464.63504 301.59064 463.82254 300.7625Q463.02567 299.91876 463.02567 298.34064ZM464.1038 298.34064Q464.1038 299.52814 464.61942 300.1219Q465.15067 300.71564 465.93192 300.71564Q466.7288 300.71564 467.24442 300.1219Q467.76004 299.52814 467.76004 298.3094Q467.76004 297.15314 467.2288 296.5594Q466.71317 295.96564 465.93192 295.96564Q465.15067 295.96564 464.61942 296.5594Q464.1038 297.1375 464.1038 298.34064ZM469.71317 301.45L471.9788 298.21564L469.88504 295.23126L471.19754 295.23126L472.15067 296.6844Q472.4163 297.10626 472.58817 297.3875Q472.83817 296.9969 473.05692 296.7L474.1038 295.23126L475.36942 295.23126L473.21317 298.15314L475.52567 301.45L474.24442 301.45L472.96317 299.5125L472.61942 298.9969L470.9788 301.45L469.71317 301.45ZM475.40067 294.09064L475.40067 292.85626L476.46317 292.85626L476.46317 294.09064L475.40067 294.09064ZM474.07254 303.8719L474.26004 302.96564Q474.58817 303.04376 474.76004 303.04376Q475.08817 303.04376 475.24442 302.825Q475.40067 302.6219 475.40067 301.7625L475.40067 295.23126L476.46317 295.23126L476.46317 301.79376Q476.46317 302.9344 476.1663 303.3875Q475.77567 303.98126 474.90067 303.98126Q474.46317 303.98126 474.07254 303.8719ZM478.4163 294.075L478.4163 292.85626L479.4788 292.85626L479.4788 294.075L478.4163 294.075ZM478.4163 301.45L478.4163 295.23126L479.4788 295.23126L479.4788 301.45L478.4163 301.45ZM483.71317 300.5125L483.86942 301.4344Q483.4163 301.52814 483.07254 301.52814Q482.49442 301.52814 482.18192 301.35626Q481.86942 301.16876 481.7288 300.8719Q481.6038 300.575 481.6038 299.6219L481.6038 296.04376L480.83817 296.04376L480.83817 295.23126L481.6038 295.23126L481.6038 293.6844L482.65067 293.0594L482.65067 295.23126L483.71317 295.23126L483.71317 296.04376L482.65067 296.04376L482.65067 299.6844Q482.65067 300.1375 482.69754 300.2625Q482.76004 300.3875 482.88504 300.46564Q483.01004 300.54376 483.24442 300.54376Q483.43192 300.54376 483.71317 300.5125ZM488.55692 301.45L486.65067 295.23126L487.74442 295.23126L488.7288 298.825L489.1038 300.15314Q489.13504 300.0594 489.43192 298.8719L490.4163 295.23126L491.49442 295.23126L492.43192 298.84064L492.74442 300.02814L493.1038 298.825L494.1663 295.23126L495.19754 295.23126L493.24442 301.45L492.15067 301.45L491.1663 297.71564L490.9163 296.66876L489.6663 301.45L488.55692 301.45ZM496.4163 294.075L496.4163 292.85626L497.4788 292.85626L497.4788 294.075L496.4163 294.075ZM496.4163 301.45L496.4163 295.23126L497.4788 295.23126L497.4788 301.45L496.4163 301.45ZM501.71317 300.5125L501.86942 301.4344Q501.4163 301.52814 501.07254 301.52814Q500.49442 301.52814 500.18192 301.35626Q499.86942 301.16876 499.7288 300.8719Q499.6038 300.575 499.6038 299.6219L499.6038 296.04376L498.83817 296.04376L498.83817 295.23126L499.6038 295.23126L499.6038 293.6844L500.65067 293.0594L500.65067 295.23126L501.71317 295.23126L501.71317 296.04376L500.65067 296.04376L500.65067 299.6844Q500.65067 300.1375 500.69754 300.2625Q500.76004 300.3875 500.88504 300.46564Q501.01004 300.54376 501.24442 300.54376Q501.43192 300.54376 501.71317 300.5125ZM502.4163 301.45L502.4163 292.85626L503.46317 292.85626L503.46317 295.9344Q504.19754 295.09064 505.32254 295.09064Q506.02567 295.09064 506.52567 295.3719Q507.0413 295.6375 507.26004 296.1219Q507.4788 296.59064 507.4788 297.5125L507.4788 301.45L506.43192 301.45L506.43192 297.5125Q506.43192 296.71564 506.08817 296.35626Q505.74442 295.9969 505.11942 295.9969Q504.65067 295.9969 504.2288 296.2469Q503.82254 296.48126 503.63504 296.90314Q503.46317 297.3094 503.46317 298.04376L503.46317 301.45L502.4163 301.45ZM512.7444 301.45L512.7444 292.85626L513.8694 292.85626L513.8694 301.45L512.7444 301.45ZM521.6819 298.4344L522.8069 298.73126Q522.4475 300.1219 521.52563 300.85626Q520.60376 301.59064 519.26 301.59064Q517.8694 301.59064 516.9944 301.02814Q516.1194 300.46564 515.66626 299.40314Q515.21313 298.325 515.21313 297.09064Q515.21313 295.7469 515.72876 294.7469Q516.2444 293.7469 517.1819 293.23126Q518.135 292.71564 519.27563 292.71564Q520.5569 292.71564 521.4319 293.3719Q522.3225 294.02814 522.66626 295.21564L521.54126 295.48126Q521.2444 294.54376 520.66626 294.1219Q520.10376 293.6844 519.2444 293.6844Q518.26 293.6844 517.58813 294.16876Q516.9319 294.6375 516.65063 295.4344Q516.385 296.23126 516.385 297.09064Q516.385 298.1844 516.6975 298.9969Q517.02563 299.8094 517.6975 300.21564Q518.3694 300.6219 519.16626 300.6219Q520.1194 300.6219 520.77563 300.075Q521.4475 299.52814 521.6819 298.4344ZM523.9944 299.59064L525.02563 299.4344Q525.1194 300.0594 525.51 300.3875Q525.91626 300.71564 526.65063 300.71564Q527.3694 300.71564 527.71313 300.4344Q528.0725 300.1375 528.0725 299.73126Q528.0725 299.3719 527.76 299.16876Q527.54126 299.02814 526.6819 298.8094Q525.52563 298.5125 525.0725 298.3094Q524.635 298.09064 524.40063 297.71564Q524.16626 297.34064 524.16626 296.8719Q524.16626 296.46564 524.35376 296.10626Q524.54126 295.7469 524.8694 295.5125Q525.1194 295.34064 525.54126 295.21564Q525.96313 295.09064 526.46313 295.09064Q527.1819 295.09064 527.72876 295.3094Q528.29126 295.5125 528.5569 295.8719Q528.8225 296.23126 528.91626 296.825L527.885 296.96564Q527.8225 296.4969 527.47876 296.23126Q527.15063 295.95 526.52563 295.95Q525.8069 295.95 525.4944 296.2Q525.1819 296.4344 525.1819 296.7625Q525.1819 296.96564 525.3069 297.1219Q525.4475 297.29376 525.71313 297.40314Q525.8694 297.46564 526.65063 297.66876Q527.77563 297.98126 528.21313 298.16876Q528.65063 298.35626 528.90063 298.71564Q529.15063 299.075 529.15063 299.6219Q529.15063 300.15314 528.83813 300.6219Q528.54126 301.075 527.96313 301.34064Q527.385 301.59064 526.65063 301.59064Q525.4319 301.59064 524.79126 301.09064Q524.16626 300.575 523.9944 299.59064Z" fill-rule="nonzero"/></svg>